    <svg id="visual" viewBox="0 0 960 540" width="960" height="540" xmlns="http://www.w3.org/2000/svg" xmlns:xlink="http://www.w3.org/1999/xlink" version="1.1"><rect x="0" y="0" width="960" height="540" fill="#ffffff"></rect><defs><linearGradient id="grad1_0" x1="43.8%" y1="100%" x2="100%" y2="0%"><stop offset="14.444444444444446%" stop-color="#ffffff" stop-opacity="1"></stop><stop offset="85.55555555555554%" stop-color="#ffffff" stop-opacity="1"></stop></linearGradient></defs><defs><linearGradient id="grad2_0" x1="0%" y1="100%" x2="56.3%" y2="0%"><stop offset="14.444444444444446%" stop-color="#ffffff" stop-opacity="1"></stop><stop offset="85.55555555555554%" stop-color="#ffffff" stop-opacity="1"></stop></linearGradient></defs><g transform="translate(960, 540)"><path d="M-513 0C-512.9 -39.5 -512.9 -79.1 -500.1 -114.2C-487.4 -149.2 -462 -179.8 -445.1 -214.3C-428.2 -248.9 -419.7 -287.3 -400.3 -319.2C-380.9 -351.2 -350.5 -376.6 -319.2 -400.3C-287.9 -424 -255.8 -445.9 -220.4 -457.7C-185.1 -469.5 -146.5 -471.2 -109.3 -478.7C-72 -486.2 -36 -499.6 0 -513L0 0Z" fill="#1995d5"></path></g><g transform="translate(0, 0)"><path d="M513 0C502.5 36.4 491.9 72.9 485.5 110.8C479.1 148.8 476.7 188.2 462.2 222.6C447.7 257 420.9 286.3 394.8 314.9C368.7 343.4 343.2 371.1 311.7 390.9C280.3 410.7 242.9 422.5 207.4 430.7C171.9 438.8 138.4 443.2 104.1 456.3C69.9 469.4 34.9 491.2 0 513L0 0Z" fill="#1995d5"></path></g></svg>
