<svg id="visual" viewBox="0 0 900 100" width="900" height="100" xmlns="http://www.w3.org/2000/svg" xmlns:xlink="http://www.w3.org/1999/xlink" version="1.1"><path d="M0 51L11.5 51.3C23 51.7 46 52.3 69 49.2C92 46 115 39 138.2 37.8C161.3 36.7 184.7 41.3 207.8 41.8C231 42.3 254 38.7 277 37.3C300 36 323 37 346 39.3C369 41.7 392 45.3 415.2 45.5C438.3 45.7 461.7 42.3 484.8 39.8C508 37.3 531 35.7 554 36.5C577 37.3 600 40.7 623 40.5C646 40.3 669 36.7 692.2 38C715.3 39.3 738.7 45.7 761.8 46.7C785 47.7 808 43.3 831 43.7C854 44 877 49 888.5 51.5L900 54L900 101L888.5 101C877 101 854 101 831 101C808 101 785 101 761.8 101C738.7 101 715.3 101 692.2 101C669 101 646 101 623 101C600 101 577 101 554 101C531 101 508 101 484.8 101C461.7 101 438.3 101 415.2 101C392 101 369 101 346 101C323 101 300 101 277 101C254 101 231 101 207.8 101C184.7 101 161.3 101 138.2 101C115 101 92 101 69 101C46 101 23 101 11.5 101L0 101Z" fill="#1998d5"></path><path d="M0 51L11.5 52.8C23 54.7 46 58.3 69 57.2C92 56 115 50 138.2 48.7C161.3 47.3 184.7 50.7 207.8 52.2C231 53.7 254 53.3 277 52.7C300 52 323 51 346 50.5C369 50 392 50 415.2 50.7C438.3 51.3 461.7 52.7 484.8 52.2C508 51.7 531 49.3 554 49C577 48.7 600 50.3 623 53C646 55.7 669 59.3 692.2 61.7C715.3 64 738.7 65 761.8 65.3C785 65.7 808 65.3 831 65.3C854 65.3 877 65.7 888.5 65.8L900 66L900 101L888.5 101C877 101 854 101 831 101C808 101 785 101 761.8 101C738.7 101 715.3 101 692.2 101C669 101 646 101 623 101C600 101 577 101 554 101C531 101 508 101 484.8 101C461.7 101 438.3 101 415.2 101C392 101 369 101 346 101C323 101 300 101 277 101C254 101 231 101 207.8 101C184.7 101 161.3 101 138.2 101C115 101 92 101 69 101C46 101 23 101 11.5 101L0 101Z" fill="#0085d7"></path><path d="M0 67L11.5 68.3C23 69.7 46 72.3 69 71.3C92 70.3 115 65.7 138.2 63.3C161.3 61 184.7 61 207.8 63.3C231 65.7 254 70.3 277 72C300 73.7 323 72.3 346 71.5C369 70.7 392 70.3 415.2 70C438.3 69.7 461.7 69.3 484.8 69.3C508 69.3 531 69.7 554 69.2C577 68.7 600 67.3 623 66C646 64.7 669 63.3 692.2 61.5C715.3 59.7 738.7 57.3 761.8 57.2C785 57 808 59 831 60.7C854 62.3 877 63.7 888.5 64.3L900 65L900 101L888.5 101C877 101 854 101 831 101C808 101 785 101 761.8 101C738.7 101 715.3 101 692.2 101C669 101 646 101 623 101C600 101 577 101 554 101C531 101 508 101 484.8 101C461.7 101 438.3 101 415.2 101C392 101 369 101 346 101C323 101 300 101 277 101C254 101 231 101 207.8 101C184.7 101 161.3 101 138.2 101C115 101 92 101 69 101C46 101 23 101 11.5 101L0 101Z" fill="#0070d4"></path><path d="M0 71L11.5 70.2C23 69.3 46 67.7 69 68.5C92 69.3 115 72.7 138.2 75.5C161.3 78.3 184.7 80.7 207.8 79.8C231 79 254 75 277 73.7C300 72.3 323 73.7 346 74C369 74.3 392 73.7 415.2 73.2C438.3 72.7 461.7 72.3 484.8 72C508 71.7 531 71.3 554 73C577 74.7 600 78.3 623 79C646 79.7 669 77.3 692.2 75.5C715.3 73.7 738.7 72.3 761.8 70.8C785 69.3 808 67.7 831 69.7C854 71.7 877 77.3 888.5 80.2L900 83L900 101L888.5 101C877 101 854 101 831 101C808 101 785 101 761.8 101C738.7 101 715.3 101 692.2 101C669 101 646 101 623 101C600 101 577 101 554 101C531 101 508 101 484.8 101C461.7 101 438.3 101 415.2 101C392 101 369 101 346 101C323 101 300 101 277 101C254 101 231 101 207.8 101C184.7 101 161.3 101 138.2 101C115 101 92 101 69 101C46 101 23 101 11.5 101L0 101Z" fill="#0059cc"></path><path d="M0 81L11.5 81.7C23 82.3 46 83.7 69 84.8C92 86 115 87 138.2 88.2C161.3 89.3 184.7 90.7 207.8 90.7C231 90.7 254 89.3 277 87.7C300 86 323 84 346 84.8C369 85.7 392 89.3 415.2 91C438.3 92.7 461.7 92.3 484.8 92.2C508 92 531 92 554 89.7C577 87.3 600 82.7 623 81.2C646 79.7 669 81.3 692.2 81.3C715.3 81.3 738.7 79.7 761.8 80.8C785 82 808 86 831 86.8C854 87.7 877 85.3 888.5 84.2L900 83L900 101L888.5 101C877 101 854 101 831 101C808 101 785 101 761.8 101C738.7 101 715.3 101 692.2 101C669 101 646 101 623 101C600 101 577 101 554 101C531 101 508 101 484.8 101C461.7 101 438.3 101 415.2 101C392 101 369 101 346 101C323 101 300 101 277 101C254 101 231 101 207.8 101C184.7 101 161.3 101 138.2 101C115 101 92 101 69 101C46 101 23 101 11.5 101L0 101Z" fill="#0b3fc1"></path></svg>